<svg width="800" height="600" viewBox="0 0 800 600" fill="none" xmlns="http://www.w3.org/2000/svg">
<path d="M416.3 314.9C400.3 314.9 387.7 327.2 387.7 343.5C387.7 359.8 400.6 372.1 416.3 372.1C432.3 372.1 444.9 359.5 444.9 343.5C445 327.2 432.3 314.9 416.3 314.9ZM416.3 326.3C425.9 326.3 433.2 333.5 433.2 343.5C433.2 353.4 425.7 360.7 416.3 360.7C406.7 360.7 399.4 353.5 399.4 343.5C399.2 333.6 406.7 326.3 416.3 326.3Z" fill="white"/>
<path d="M654.5 353.7V327.5H668.1V316.1H654.5V300.7L642.8 304.3V316H632.9V327.4H642.8V353.6C642.8 367.8 650 372.9 668.1 370.5V360C659.1 360.7 654.5 360.7 654.5 353.7Z" fill="white"/>
<path d="M715.4 359.8H688.6L715.4 327.6V316.8H673.8V327.6H700.6L673.8 359.8V370.9H715.4V359.8Z" fill="white"/>
<path d="M246.5 231.2L258.5 227.6V303.8H246.5V299.6C241.1 303.5 234.2 305.6 226.6 305C213.3 303.8 202.2 293 201 279.4C201 278.2 200.7 277.3 200.7 276.1C200.7 275.2 200.7 274.3 201 273.4C201 273.1 201 273.1 201 272.8V272.5V272.2C201 271.6 201.3 271 201.3 270.4C201.3 270.1 201.3 269.8 201.6 269.8V269.5V269.2C201.6 268.6 201.9 268.3 201.9 267.7C201.9 267.4 202.2 267.1 202.2 266.8V266.5C202.5 265.9 202.5 265.6 202.8 265C202.8 264.7 203.1 264.4 203.1 264.1C203.1 264.1 203.1 264.1 203.1 263.8C203.4 263.2 203.7 262.9 203.7 262.3C204 262 204 261.7 204.3 261.4C204.6 261.1 204.9 260.5 205.2 260.2C205.5 259.9 205.8 259.6 206.1 259.3C206.4 259 206.7 258.4 207 258.1C207.3 257.8 207.6 257.5 207.9 257.2C208.2 256.9 208.5 256.6 209.1 256C209.4 255.7 209.7 255.4 210 255.1C210.3 254.8 210.9 254.5 211.2 254.2C212.4 253.6 212.7 253.3 213 253C213.3 252.7 213.9 252.4 214.2 252.1H214.5C214.8 251.8 215.1 251.8 215.4 251.5C216 251.2 216.3 250.9 216.9 250.9H217.2C217.5 250.9 217.8 250.6 218.1 250.6C218.7 250.3 219 250.3 219.6 250H219.9C220.2 250 220.5 249.7 220.8 249.7C221.4 249.4 221.7 249.4 222.3 249.4H222.6H222.9C223.2 249.4 223.5 249.4 223.8 249.1C224.4 249.1 225 248.8 225.6 248.8H225.9C226.2 248.8 226.2 248.8 226.5 248.8C227.4 248.8 228.6 248.5 229.5 248.5C235.8 248.5 241.5 250.6 246.4 253.9L246.5 231.2ZM226 292.9C236.8 295.3 246.5 286.9 246.5 276.6V276.3C246.5 267 239 259.4 229.6 259.4C229 259.4 228.4 259.4 227.8 259.4H227.5C227.5 259.4 227.5 259.4 227.2 259.4C226.9 259.4 226.3 259.4 226 259.7H225.7C225.4 259.7 225.1 260 224.8 260C224.5 260 224.2 260.3 224.2 260.3C223.9 260.3 223.6 260.6 223.3 260.6C223 260.6 223 260.9 222.7 260.9C222.4 261.2 222.1 261.2 221.8 261.5C221.5 261.5 221.5 261.8 221.2 261.8C220.9 262.1 220.6 262.1 220.3 262.4C220.3 262.4 220.3 262.4 220 262.4L219.7 262.7C219.4 263 219.1 263.3 218.8 263.6C218.8 263.6 218.8 263.6 218.5 263.9C218.2 264.2 217.6 264.8 217.3 265.1C217 265.4 216.7 266 216.4 266.3C216.4 266.3 216.4 266.6 216.1 266.6C216.1 266.6 216.1 266.6 216.1 266.9C215.8 267.2 215.8 267.5 215.5 267.8C215.5 268.1 215.2 268.1 215.2 268.4C214.9 268.7 214.9 269 214.9 269.3C214.9 269.6 214.6 269.6 214.6 269.9C214.6 270.2 214.3 270.5 214.3 270.8C214.3 271.1 214.3 271.4 214 271.4C214 271.7 214 272 213.7 272.6C213.7 272.9 213.7 273.2 213.7 273.2C213.7 273.5 213.7 274.1 213.7 274.4V274.7C213.7 275 213.7 275 213.7 275.3C213.7 276.5 213.7 277.7 214 279.2C214.6 286.6 219.7 291.7 226 292.9Z" fill="white"/>
<path d="M130 249.5V253.1C125.5 249.8 119.5 247.7 113.4 247.7C96.5 247.7 83 262.5 84.8 279.6C86.3 292.9 97.1 303.7 110.4 305.2C117.9 305.8 124.9 303.7 130.3 299.8V304H142.3V249.5H130ZM130 276.6C130 287.1 120.4 295.3 109.5 292.9C103.2 291.7 98.1 286.6 96.6 280C94.5 269.2 102.9 259.5 113.5 259.5C122.4 259.5 130 267 130 276.6Z" fill="white"/>
<path d="M478.1 315.5V328.1C470.3 327.5 461.2 331.1 461.2 343.5V370.9H449.5V316.4H461.2V325.4C464.5 318.2 471.2 315.5 478.1 315.5Z" fill="white"/>
<path d="M506.4 314.9C490.4 314.9 477.8 327.2 477.8 343.5C477.8 359.8 490.7 372.1 506.4 372.1C522.4 372.1 535 359.5 535 343.5C535.3 327.2 522.6 314.9 506.4 314.9ZM506.4 326.3C516 326.3 523.3 333.5 523.3 343.5C523.3 353.4 515.8 360.7 506.4 360.7C496.8 360.7 489.5 353.5 489.5 343.5C489.5 333.6 497 326.3 506.4 326.3Z" fill="white"/>
<path d="M612.7 316.4L595.5 370.9H584.1L572.7 334.2L561.3 370.9H549.9L532.7 316.4H545L555.5 354L566.9 316.4H578L589.4 354L599.9 316.4H612.7Z" fill="white"/>
<path d="M628.3 316.4H616.6V370.9H628.3V316.4Z" fill="white"/>
<path d="M291.7 248.6V261.2C283.9 260.6 274.8 264.2 274.8 276.6V304H263.1V249.5H274.8V258.5C278.1 251.4 284.7 248.6 291.7 248.6Z" fill="white"/>
<path d="M394.4 287.8C391.7 291.7 386.9 294.4 380.2 294.4C371.5 294.4 364.5 290.2 362.7 281.5H406.1C406.4 280 406.4 278.2 406.4 276.7C406.4 261 395.3 248.1 379 248.1C361.8 248.1 350.4 260.7 350.4 276.7C350.4 293 362.1 305.3 379.9 305.3C390.4 305.3 398.9 300.8 403.7 293.6L394.4 287.8ZM379.3 258.9C386.5 258.9 393.2 262.8 395 272.2H362.8C364.5 264 370.6 258.9 379.3 258.9Z" fill="white"/>
<path d="M529 294.7C535.6 294.7 540.4 291.7 543.2 288.1L552.8 293.8C547.7 301.3 539.5 305.5 529 305.5C510.9 305.5 499.5 293.2 499.5 276.9C499.5 260.6 511.2 248.3 528.1 248.3C544.4 248.3 555.5 261.2 555.5 276.9C555.5 278.4 555.2 280.2 555.2 281.7H511.8C513.3 290.2 520.2 294.7 529 294.7ZM543.4 272.1C541.9 262.8 535 258.8 527.7 258.8C519 258.8 512.9 263.9 511.1 272.1C511.2 272.1 543.4 272.1 543.4 272.1Z" fill="white"/>
<path d="M616.6 304.1H628.3V293.6H616.6V304.1Z" fill="white"/>
<path d="M175.4 248C167.9 248 162.1 250.7 158.5 256.4V250.1V249.2H146.8V253.7V303.7H158.5V274.5C158.5 263.4 164.5 258.8 172.4 258.8C179.9 258.8 184.4 263 184.4 271.4V303.6H196.1V270.5C196.5 256.5 187.8 248 175.4 248Z" fill="white"/>
<path d="M572.9 304.1H561.2V249.6H572.9V256.5C576.5 250.8 582.2 248.1 589.8 248.1C601.8 248.1 610.6 256.2 610.6 270.4V303.8H598.9V271.9C598.9 263.8 594.1 259.3 586.9 259.3C579.1 259.3 573 263.8 573 275V304.1H572.9Z" fill="white"/>
<path d="M422.1 264.6C422.1 260.7 425.7 258.9 429.9 258.9C434.1 258.9 437.7 260.7 439.8 264.3L450 259.2C446.1 252.3 438.9 248.1 429.8 248.1C418.7 248.1 409.9 254.4 409.9 264.7C409.9 276.1 419.8 278.9 428.3 281.3C434.3 283.1 439.1 284.3 439.1 288.5C439.1 292.7 435.2 294.5 429.8 294.5C424.7 294.5 420.5 292.4 418.4 288.5L407.9 293.6C411.5 300.8 419.3 305.3 429.6 305.3C441.3 305.3 451 299.3 451 288.4C451 276.7 440.8 273.6 432.6 271.5C427.2 270 422.1 268.5 422.1 264.6Z" fill="white"/>
<path d="M475.4 258.9C471.2 258.9 467.6 260.7 467.6 264.6C467.6 268.8 472.7 270 478.4 271.8C486.8 274.2 496.8 276.9 496.8 288.7C496.8 299.5 487.5 305.6 475.4 305.6C464.9 305.6 457.3 301.1 453.7 293.9L464.2 288.8C466.3 292.7 470.2 294.8 475.6 294.8C480.7 294.8 484.9 293 484.9 288.8C484.9 284.9 479.8 283.4 474.1 281.6C465.7 279.2 455.7 276.5 455.7 265C455.7 254.8 464.4 248.4 475.6 248.4C484.3 248.4 491.9 252.6 495.8 259.5L485.6 264.6C483.2 260.7 479.6 258.9 475.4 258.9Z" fill="white"/>
<path d="M362.4 314.9C354.9 314.9 349.1 317.6 345.5 323.3V293.5L335.9 288.1C335.3 289 334.7 289.9 333.8 290.5C330.8 292.9 326.9 294.7 321.8 294.7C313.1 294.7 306.1 290.2 304.3 281.8H348C348 280.3 348.3 278.5 348.3 277C348.3 261.3 337.2 248.4 320.9 248.4C304 248.4 292.3 260.7 292.3 277C292.3 293.3 303.7 305.6 321.8 305.6C326.3 305.6 330.2 304.7 333.8 303.2V371H345.5V341.8C345.5 330.7 351.5 326.1 359.4 326.1C366.6 326.1 371.4 330.6 371.4 338.7V370.9H383.1V337.2C383.2 323 374.5 314.9 362.4 314.9ZM320.6 258.9C327.8 258.9 334.5 262.8 336.3 272.2H304.4C305.8 264 311.8 258.9 320.6 258.9Z" fill="white"/>
</svg>
