<svg width="479" height="98" viewBox="0 0 479 98" fill="none" xmlns="http://www.w3.org/2000/svg">
<path d="M0 0.856334H16.9547C21.2238 0.856334 24.0293 1.83499 26.2249 3.91462C27.4446 5.13793 28.4204 6.97289 28.4204 9.17485C28.4204 13.2118 26.2249 15.4138 23.1755 16.6371C27.2007 17.8604 29.6402 20.307 29.6402 24.7109C29.6402 30.5829 25.0051 34.0081 16.9547 34.0081H0V0.856334ZM14.7591 14.1904C17.5646 14.1904 19.0283 13.2118 19.0283 11.3768C19.0283 9.54187 17.4426 8.56319 14.7591 8.56319H8.90426V14.4351H14.7591V14.1904ZM15.9789 26.9129C18.7843 26.9129 20.248 25.6896 20.248 23.8546C20.248 22.0196 18.6623 20.7963 15.6129 20.7963H8.53832V27.0352H15.9789V26.9129ZM51.2299 0.856334H60.5001V26.1789H76.479V34.2528H51.2299V0.856334ZM94.6534 17.6157C94.6534 8.0739 102.338 0 112.584 0C122.83 0 130.514 7.70689 130.514 17.3711C130.514 26.9129 122.83 34.7421 112.584 34.7421C102.338 34.8645 94.6534 27.1576 94.6534 17.6157ZM121.244 17.6157C121.244 12.7225 117.829 8.31855 112.584 8.31855C107.705 8.31855 104.29 12.3555 104.29 17.2487C104.29 22.142 107.705 26.1789 112.95 26.1789C117.829 26.5459 121.244 22.509 121.244 17.6157ZM151.372 17.6157C151.372 7.7069 158.813 0 168.937 0C175.767 0 180.037 2.81364 183.086 7.09524L176.011 12.3555C174.182 9.90885 171.986 8.31855 168.571 8.31855C163.936 8.31855 160.52 12.3555 160.52 17.2487C160.52 22.142 163.936 26.1789 168.571 26.1789C171.986 26.1789 174.182 24.5886 176.011 22.142L183.086 27.0352C180.037 31.3168 175.646 34.4975 168.327 34.4975C159.179 34.8644 151.372 27.7692 151.372 17.6157ZM204.798 0.856334H214.068V14.4351L225.534 0.856334H236.634L223.948 15.4138L236.878 34.6198H225.778L217.483 22.2643L214.068 25.9343V34.6198H204.798V0.856334ZM252.856 17.6157C252.856 7.7069 260.297 0 270.421 0C277.252 0 281.521 2.81364 284.57 7.09524L277.496 12.3555C275.666 9.90885 273.47 8.31855 270.055 8.31855C265.42 8.31855 262.005 12.3555 262.005 17.2487C262.005 22.142 265.42 26.1789 270.055 26.1789C273.47 26.1789 275.666 24.5886 277.496 22.142L284.57 27.0352C281.521 31.3168 277.13 34.4975 269.811 34.4975C260.541 34.8644 252.856 27.7692 252.856 17.6157ZM305.916 0.856334H315.186V13.2118H326.896V0.856334H336.166V34.2528H326.896V21.5303H315.186V34.2528H305.916V0.856334V0.856334ZM371.051 0.611657H379.955L394.105 34.3751H384.225L381.785 28.5032H368.856L366.416 34.3751H356.536L371.051 0.611657ZM378.98 21.041L375.32 11.4992L371.661 21.041H378.98ZM414.475 0.856334H423.745V34.2528H414.475V0.856334ZM447.164 0.856334H455.825L469.73 18.472V0.856334H479V34.2528H470.95L456.8 16.0254V34.2528H447.53V0.856334H447.164ZM0.243948 80.9834C0.243948 71.4415 7.31857 63.6123 17.1986 63.6123C23.4194 63.6123 26.7128 65.8143 30.1281 68.8726L27.6886 71.6862C24.6392 68.8726 21.4678 67.0376 17.1986 67.0376C9.75809 67.0376 4.26916 72.9095 4.26916 80.6164C4.26916 88.3233 9.88007 94.5622 17.1986 94.5622C21.8337 94.5622 24.8831 92.7272 27.9325 89.6689L30.372 92.1155C26.9567 95.5408 22.9315 97.9874 17.0766 97.9874C7.44054 98.3544 0.243948 90.6475 0.243948 80.9834ZM66.5989 63.9793H70.0142L85.1393 97.7428H81.1141L77.0889 88.8126H58.9144L54.8892 97.7428H50.864L66.5989 63.9793ZM75.8691 85.3873L68.1846 68.3833L60.5001 85.3873H75.8691ZM108.803 64.3463H121.122C128.563 64.3463 133.442 68.3832 133.442 74.8668C133.442 81.962 127.587 85.6319 120.146 85.6319H112.218V97.3758H108.559V64.224H108.803V64.3463ZM120.878 82.5737C126.489 82.5737 130.148 79.5154 130.148 75.1115C130.148 70.4629 126.489 68.0162 121.244 68.0162H112.95V82.8183H121V82.5737H120.878ZM158.203 64.3463H161.862V97.7428H158.203V64.3463ZM197.723 67.6493H186.623V64.224H212.848V67.6493H201.748V97.6204H198.089V67.6493H197.723ZM245.172 63.9793H248.587L263.712 97.7428H259.687L255.662 88.8126H237.487L233.462 97.7428H229.437L245.172 63.9793ZM254.442 85.3873L246.758 68.3833L239.073 85.3873H254.442ZM287.376 64.3463H291.035V94.3175H309.819V97.7428H287.254V64.3463H287.376Z" fill="white"/>
</svg>
