<svg width="560" height="100" viewBox="0 0 560 100" fill="none" xmlns="http://www.w3.org/2000/svg">
<path d="M113.024 27.9181C92.6801 27.9181 76.7844 43.3559 76.7844 64.0226C76.7844 84.6893 92.2785 99.9949 113.024 99.9949C133.769 99.9949 149.533 84.425 149.533 63.8904C149.533 43.488 134.038 27.9181 113.024 27.9181ZM113.156 85.0958C101.571 85.0958 93.0817 76.1014 93.0817 64.0226C93.0817 51.8065 101.434 42.8172 113.019 42.8172C124.741 42.8172 133.225 51.9437 133.225 64.0226C133.225 76.1014 124.741 85.0958 113.156 85.0958ZM153.975 43.6201H164.081V98.6534H180.246V29.2596H153.975V43.6201ZM36.1021 42.8172C44.5914 42.8172 51.3268 48.0512 53.8838 55.8362H70.9944C67.8936 39.1941 54.1532 27.9181 36.2394 27.9181C15.8957 27.9181 0 43.3559 0 64.0226C0 84.6893 15.4941 99.9949 36.2394 99.9949C53.7516 99.9949 67.7614 88.7189 70.8623 71.9396H53.8889C51.4641 79.7246 44.7286 85.0958 36.2394 85.0958C24.5171 85.0958 16.3024 76.1014 16.3024 64.0226C16.2973 51.8116 24.3799 42.8172 36.1021 42.8172ZM461.123 57.3149L449.269 55.5719C443.611 54.769 439.57 52.8889 439.57 48.4577C439.57 43.6252 444.826 41.2114 451.963 41.2114C459.776 41.2114 464.763 44.5653 465.841 50.0686H481.467C479.713 36.1096 468.936 27.9232 452.37 27.9232C435.259 27.9232 423.943 36.6482 423.943 48.9964C423.943 60.8059 431.355 67.6559 446.305 69.8003L458.16 71.5433C463.955 72.3462 467.188 74.6329 467.188 78.9268C467.188 84.4301 461.53 86.7117 453.717 86.7117C444.15 86.7117 438.761 82.8192 437.953 76.9145H422.057C423.542 90.4721 434.181 100 453.58 100C471.229 100 482.946 91.9457 482.946 78.1188C482.946 65.7706 474.457 59.3272 461.123 57.3149ZM172.164 0.670754C166.237 0.670754 161.789 4.96468 161.789 10.8694C161.789 16.7742 166.231 21.0681 172.164 21.0681C178.091 21.0681 182.539 16.7742 182.539 10.8694C182.534 4.96468 178.091 0.670754 172.164 0.670754ZM409.395 53.0159C409.395 37.9846 400.235 27.9181 380.836 27.9181C362.516 27.9181 352.278 37.1818 350.255 51.4101H366.288C367.096 45.9068 371.407 41.3436 380.567 41.3436C388.787 41.3436 392.828 44.9667 392.828 49.3978C392.828 55.1705 385.417 56.6441 376.256 57.5842C363.863 58.9258 348.506 63.2197 348.506 79.3282C348.506 91.8136 357.804 99.8628 372.622 99.8628C384.207 99.8628 391.481 95.0302 395.121 87.3774C395.66 94.2223 400.778 98.6534 407.921 98.6534H417.35V84.2929H409.4V53.0159H409.395ZM393.494 70.466C393.494 79.7297 385.411 86.5745 375.575 86.5745C369.511 86.5745 364.392 84.0236 364.392 78.6574C364.392 71.8126 372.611 69.9324 380.155 69.1295C387.43 68.4588 391.471 66.8479 393.494 63.7583V70.466ZM307.682 27.9181C298.653 27.9181 291.11 31.6784 285.721 37.9847V0H269.556V98.6585H285.452V89.532C290.84 96.1075 298.521 100 307.682 100C327.08 100 341.766 84.6994 341.766 64.0276C341.766 43.3559 326.815 27.9181 307.682 27.9181ZM305.257 85.0958C293.672 85.0958 285.182 76.1014 285.182 64.0226C285.182 51.9437 293.804 42.8172 305.389 42.8172C317.111 42.8172 325.326 51.8116 325.326 64.0226C325.331 76.1065 316.842 85.0958 305.257 85.0958ZM230.897 27.9181C220.39 27.9181 213.517 32.212 209.476 38.254V29.2596H193.443V98.6534H209.608V60.9381C209.608 50.3328 216.343 42.8172 226.312 42.8172C235.609 42.8172 241.399 49.3928 241.399 58.9258V98.6585H257.565V57.7214C257.57 40.2663 248.547 27.9181 230.897 27.9181ZM560 61.7409C560 41.8771 545.451 27.9181 525.916 27.9181C505.171 27.9181 489.946 43.488 489.946 64.0226C489.946 85.6344 506.248 99.9949 526.185 99.9949C543.027 99.9949 556.228 90.0605 559.593 75.9693H542.752C540.327 82.1434 534.4 85.6344 526.45 85.6344C516.075 85.6344 508.261 79.191 506.513 67.915H559.995V61.7409H560ZM507.463 56.3748C510.025 46.7097 517.3 42.0143 525.652 42.0143C534.812 42.0143 541.817 47.2483 543.433 56.3748H507.463Z" fill="white"/>
</svg>
