<svg width="394" height="108" viewBox="0 0 394 108" fill="none" xmlns="http://www.w3.org/2000/svg">
<path d="M0 42.1226V84.2452H17.0077C38.021 84.2452 40.5163 84.1154 46.689 82.6226C56.0137 80.351 63.6967 75.4832 68.95 68.5385C71.2483 65.488 73.2183 61.7885 74.5973 58.024C78.1433 48.0938 77.815 34.399 73.8093 24.4687C68.8187 12.0721 58.9687 4.15385 44.916 1.16827C39.9253 0.12981 40.0567 0.129802 19.306 0.0648979L0 0V42.1226ZM39.794 15.3173C46.689 16.7452 51.614 19.6659 55.2257 24.3389C61.3327 32.3221 62.449 46.6659 57.6553 56.012C54.1093 62.8918 48.5933 66.9159 39.991 68.7981C38.218 69.1875 37.5613 69.2524 27.3173 69.3173L16.4823 69.3822V42.0577V14.7332L27.1203 14.7981C37.233 14.863 37.824 14.9279 39.794 15.3173ZM105.855 26.1563C102.374 26.5457 98.894 27.5841 96.0703 28.9471C91.211 31.2836 87.271 35.3726 85.104 40.3053C84.316 42.0577 83.725 43.8101 83.922 43.9399C83.9877 44.0048 86.8113 44.7837 90.2917 45.6923C93.772 46.601 96.727 47.3798 96.924 47.4447C97.1867 47.5096 97.318 47.1851 97.7777 46.0168C99.485 40.9543 103.753 38.0986 109.729 38.0986C113.735 38.0986 116.755 39.0721 118.857 41.2139C120.892 43.161 121.483 44.9784 121.68 49.0024C121.746 51.4687 121.746 51.7284 121.483 51.7284C121.286 51.7284 119.71 51.4038 117.937 50.9495C112.553 49.7163 111.305 49.5216 106.774 49.5216C101.192 49.5216 97.6463 50.1707 93.969 51.8582C88.256 54.5192 85.1697 58.8678 84.3817 65.2933C83.725 71.0697 85.498 76.3918 89.5037 80.1562C94.0347 84.375 100.207 86.0625 107.496 85.0889C113.735 84.2452 118.266 81.5841 121.418 76.911L122.337 75.5481L122.403 79.8966L122.468 84.2452H129.56H136.652L136.587 64.3846L136.521 44.524L135.996 42.512C133.697 33.4255 127.919 28.4279 117.346 26.4808C115.508 26.2212 107.562 25.9615 105.855 26.1563ZM114.194 60.5553C115.114 60.75 117.149 61.3341 118.791 61.8534C122.074 62.8269 121.877 62.5673 121.549 64.9038C120.958 68.7981 117.937 71.9784 113.669 73.1466C112.159 73.5361 108.219 73.7308 106.446 73.4062C103.819 72.9519 101.586 71.524 100.601 69.5769C100.01 68.4086 99.879 66.137 100.339 64.7091C100.995 62.5673 103.097 60.9447 105.855 60.2957C107.693 59.8413 112.027 59.9712 114.194 60.5553ZM176.184 26.351C170.733 27.3245 165.546 30.2452 162.328 34.1394C161.737 34.7885 161.212 35.3726 161.146 35.3726C161.08 35.4375 160.949 33.6202 160.949 31.2837V27.1298H153.463H145.977V67.6298V108H153.726H161.54L161.606 92.488L161.671 76.976L162.394 78.0144C165.808 82.8822 172.703 85.6731 180.452 85.3485C189.711 84.9591 197.394 80.9351 202.188 73.9255C209.083 63.8005 208.951 47.3149 201.794 36.9952C200.48 35.113 197.919 32.4519 196.015 31.0889C193.323 29.0769 189.514 27.3894 185.771 26.5457C183.867 26.0914 178.154 26.0264 176.184 26.351ZM180.452 39.7861C184.458 40.8894 187.938 43.7452 189.842 47.5096C191.287 50.3654 191.944 54.3894 191.615 58.024C190.959 64.5793 187.084 69.7067 181.306 71.5889C179.927 72.0433 179.27 72.1731 177.103 72.238C173.885 72.3029 172.112 71.9784 169.354 70.6154C167.778 69.8365 167.253 69.4471 165.743 67.9543C164.167 66.3966 163.838 65.9423 162.985 64.1899C161.343 60.8798 160.818 57.6346 161.212 53.9351C162 46.2764 166.399 41.0841 173.294 39.5264C174.739 39.2019 178.81 39.3317 180.452 39.7861ZM244.871 26.351C241.588 26.9351 238.107 28.363 235.284 30.2452C233.839 31.2187 231.409 33.4904 230.424 34.7235L229.833 35.5024V31.3486V27.1947H222.282H214.73V67.6298V108H222.61H230.49V92.5529V77.1058L231.212 78.0144C233.905 81.5192 237.976 83.9207 243.032 84.8942C245.396 85.3486 250.978 85.3486 253.539 84.8942C259.186 83.8558 263.914 81.4543 267.789 77.625C273.502 71.9784 276.325 64.0601 275.997 54.4543C275.669 45.6274 272.779 38.3582 267.395 33.2308C262.47 28.4928 256.166 26.0264 249.074 26.0913C247.498 26.0913 245.725 26.2211 244.871 26.351ZM249.074 39.7861C254.787 41.3438 258.792 45.887 260.04 52.1827C260.368 53.8702 260.303 58.4135 259.974 60.101C258.661 65.9423 255.049 69.9663 249.665 71.6538C247.826 72.238 243.886 72.4327 241.85 71.9784C235.809 70.6803 231.409 66.2019 230.096 59.9062C229.702 58.024 229.702 54 230.03 52.0529C230.753 48.4832 232.066 45.9519 234.561 43.4856C236.728 41.4086 239.158 40.1106 242.179 39.4615C243.492 39.2019 247.695 39.3966 249.074 39.7861ZM307.648 26.1563C300.688 27.1947 295.5 29.6611 291.166 34.0096C286.504 38.6178 283.746 44.4591 282.892 51.4038C282.564 54.1298 282.761 59.5168 283.286 62.113C285.125 71.2644 290.312 78.2091 298.324 82.1034C306.926 86.3221 318.746 86.4519 327.086 82.4279C330.566 80.7404 333.784 78.1442 336.082 75.0937C337.33 73.4711 339.825 68.863 339.891 68.0192C339.956 67.6298 339.562 67.4351 333.652 65.0986C326.035 62.113 326.692 62.3077 326.692 62.762C326.692 63.3461 325.641 65.488 324.919 66.6562C323.408 68.9279 321.307 70.4856 318.812 71.3293C314.543 72.7572 309.75 72.3678 305.613 70.3558C304.168 69.6418 303.511 69.1875 302.198 67.8894C300.819 66.5913 300.425 66.0721 299.703 64.5144C298.783 62.5673 298.521 61.6586 298.258 59.7764L298.127 58.5433L317.761 58.4784L337.527 58.5433L337.789 57.1803C337.921 56.3365 338.052 54.3245 338.052 51.7284C338.052 48.1586 337.986 47.3798 337.658 45.6923C335.36 35.3726 328.727 28.9471 318.155 26.6755C316.579 26.351 315.397 26.2861 312.245 26.2212C310.012 26.1563 307.977 26.1563 307.648 26.1563ZM315.463 38.9423C318.352 39.6562 320.979 41.6034 322.095 43.6803C322.62 44.6538 323.08 46.4062 323.08 47.4447V48.2885H310.669C303.84 48.2885 298.258 48.2236 298.258 48.2236C298.258 48.1587 298.389 47.7043 298.652 47.1202C300.885 40.5 307.977 37.0601 315.463 38.9423ZM373.84 26.351C369.966 27.1298 366.683 29.4014 364.581 32.7764L363.596 34.3341V30.7644V27.1947H355.848H348.099V55.7524V84.3101H355.848H363.596L363.662 64.7091C363.728 45.3029 363.728 45.1731 364.122 43.9399C364.713 42.2524 365.632 40.8894 366.814 40.0457C368.127 39.0721 369.309 38.6827 371.017 38.5529C374.694 38.2933 377.78 40.2404 378.7 43.4207C378.962 44.2644 378.962 44.9784 378.897 46.6659C378.831 47.899 378.7 49.1322 378.634 49.3918L378.503 49.9111H385.857H393.212L393.409 48.9375C394.197 45.4976 394.197 40.5 393.409 37.6442C391.767 31.4135 387.105 27.1298 380.801 26.1563C379.159 25.9615 375.416 26.0264 373.84 26.351Z" fill="white"/>
</svg>
