<svg width="492" height="35" viewBox="0 0 492 35" fill="none" xmlns="http://www.w3.org/2000/svg">
<path d="M5.5 5V15H19.1V19.5H5.5V34H0V0.399994H22.8V4.89999L5.5 5ZM53.2 0.5C56.4 0.5 57.7 0.999994 59.1 1.89999C60.9 3.69999 62.3 5.99999 62.3 17.3C62.3 28.6 60.9 30.9 59.1 32.7C57.7 33.6 56.8 34.1 53.2 34.1H43.2C40 34.1 38.7 33.6 37.3 32.7C35.5 30.9 34.1 28.6 34.1 17.3C34.1 5.99999 35.5 3.69999 37.3 1.89999C38.7 0.999994 39.6 0.5 43.2 0.5H53.2ZM40.9 29.1C41.4 29.6 41.8 29.6 43.6 29.6H52.7C54.5 29.6 55 29.6 55.4 29.1C55.9 28.6 56.8 27.3 56.8 17.3C56.8 7.79999 55.9 5.9 55.4 5.5C54.9 5 54.5 5 52.7 5H43.6C41.8 5 41.3 5 40.9 5.5C40.5 6 39.5 7.29999 39.5 17.3C40 26.8 40.5 28.7 40.9 29.1ZM104.1 20C104.1 28.6 103.2 30 101.4 31.8C99.6 33.2 97.3 33.6 92.8 33.6H87.8C83.3 33.6 81 33.1 79.2 31.8C77.4 30 76.5 28.2 76.5 20V0.5H82V21.4C82 27.3 82.5 28.2 83.4 28.7C83.9 29.2 84.8 29.6 88.9 29.6H92.1C95.7 29.6 96.6 29.6 97.6 28.7C98.5 27.8 98.5 27.8 98.5 21.4V0.5H104V20H104.1ZM147.7 34.1H141.8C140.4 34.1 140 33.6 139.1 32.7L125.5 7.69998H124.6V34H119.1V0.399994H125.5C126.9 0.399994 127.3 0.899988 128.2 1.79999L141.4 25.4H142.3V0H147.8V34.1H147.7ZM178.6 0.5C182.7 0.5 185.4 0.999988 187.2 2.79999C189.5 4.59999 190.8 9.19999 190.8 17.3C190.8 25.5 189.9 29.6 187.2 31.8C185.4 33.6 183.1 34.1 178.6 34.1H163.2V0.5H178.6ZM182.6 5.89999C181.7 4.99999 180.3 5 178.5 5H169V29.5H178.5C180.8 29.5 181.7 29.5 182.6 28.6C184 27.2 184.4 25 184.4 17.7C184.9 9.59998 184 7.29999 182.6 5.89999ZM228.5 34.1H204.4V0.5H228.5V5H209.9V14.1H225.3V18.6H209.9V29H228.5V34.1ZM261.7 20.9C261.2 20.4 259.9 20.4 258.1 20.4H248.1V34.5H242.6V0.899994H261.7C264 0.899994 265.8 1.39999 266.7 2.29999C268.1 3.69999 269 5.5 269 10.5C269 16.4 267.2 18.2 263.1 18.7C266.7 19.2 268.1 20.1 268.6 25.1C268.6 29.6 269.1 32.8 269.1 34.6H263.6C263.1 32.3 263.1 29.1 263.1 25.5C262.6 22.3 262.1 21.4 261.7 20.9ZM259.9 15.9C261.3 15.9 261.7 15.4 262.2 15.4C262.7 14.9 263.1 14 263.1 10.4C263.1 6.79999 262.6 5.89999 262.2 5.39999C261.8 4.89999 261.3 4.89999 259.9 4.89999H248.1V15.8L259.9 15.9ZM307.1 32.7C306.2 33.6 304.4 34.1 301.6 34.1H289.8C287.1 34.1 285.3 33.6 284.3 32.7C282.9 31.3 282.5 29.5 282.5 23.6H288C288 27.7 288.5 28.6 288.5 29.1C289 29.6 289.4 29.6 290.8 29.6H300.8C302.2 29.6 302.6 29.6 303.1 29.1C303.6 28.6 303.6 27.3 303.6 24.6C303.6 22.3 303.6 21.4 303.1 21C302.6 20.5 302.2 20.5 300.8 20.5L289.9 19.6C287.2 19.1 285.8 18.7 284.9 17.8C283.5 16.4 283.1 15.1 283.1 10.5C283.1 6 283.6 4.09999 285.4 2.29999C286.3 1.39999 288.1 0.899994 290.9 0.899994H301.8C304.5 0.899994 306.3 1.39999 307.3 2.29999C308.7 3.69999 309.1 4.99999 309.1 11.4H303.6C303.6 7.29999 303.1 6.39999 303.1 6.39999C302.6 5.89999 302.2 5.89999 300.8 5.89999H291.7C290.3 5.89999 289.9 5.89999 289.4 6.39999C288.9 6.89999 288.9 8.19999 288.9 10.9C288.9 13.2 288.9 14.1 289.4 14.5C289.9 15 290.3 15 291.7 15L302.6 15.9C304.9 15.9 306.7 16.4 307.6 17.7C309 19.1 309.4 20.4 309.4 25.4C309.4 29.1 308.9 30.9 307.1 32.7ZM347.5 5V15H361.1V19.5H347.5V34H342V0.399994H364.7V4.89999L347.5 5ZM405.2 20C405.2 28.6 404.3 30 402.5 31.8C400.7 33.2 398.4 33.6 393.9 33.6H388.9C384.4 33.6 382.1 33.1 380.3 31.8C378.5 30 377.6 28.2 377.6 20V0.5H383.1V21.4C383.1 27.3 383.6 28.2 384.5 28.7C385 29.2 385.9 29.6 390 29.6H393.2C396.8 29.6 397.7 29.6 398.7 28.7C399.6 27.8 399.6 27.8 399.6 21.4V0.5H405.1V20H405.2ZM448.8 34.1H442.9C441.5 34.1 441.1 33.6 440.2 32.7L426.6 7.69998H425.7V34H420.2V0.399994H426.6C428 0.399994 428.4 0.899988 429.3 1.79999L442.5 25.4H443.4V0H448.9V34.1H448.8ZM479.7 0.5C483.8 0.5 486.5 0.999988 488.3 2.79999C490.6 4.59999 491.9 9.19999 491.9 17.3C491.9 25.5 491 29.6 488.3 31.8C486.5 33.6 484.2 34.1 479.7 34.1H464.3V0.5H479.7ZM483.8 5.89999C482.9 4.99999 481.5 5 479.7 5H470.2V29.5H479.7C482 29.5 482.9 29.5 483.8 28.6C485.2 27.2 485.6 25 485.6 17.7C485.6 9.59998 485.1 7.29999 483.8 5.89999Z" fill="white"/>
</svg>
