<svg width="500" height="95" viewBox="0 0 500 95" fill="none" xmlns="http://www.w3.org/2000/svg">
<path d="M84.9023 47.4076C84.906 40.0673 82.772 32.8847 78.7608 26.7373L93.6681 11.83L82.4712 0.633118L67.5763 15.5404C55.0125 7.34701 38.7954 7.34701 26.2316 15.5404L11.312 0.633118L0.115051 11.83L15.0223 26.7373C6.82895 39.3011 6.82895 55.5182 15.0223 68.082L0.115051 82.9893L11.312 94.1862L26.2192 79.2789C38.783 87.4723 55.0001 87.4723 67.5639 79.2789L82.4712 94.1862L93.6681 82.9893L78.7608 68.0943C82.7751 61.9422 84.9092 54.7535 84.9023 47.4076V47.4076ZM24.7178 47.4076C24.7003 38.353 30.1895 30.1971 38.5846 26.8045C46.9796 23.4118 56.5941 25.4638 62.8725 31.9882C69.151 38.5126 70.8322 48.1987 67.1197 56.4573L52.4921 41.8091L41.2911 53.0102L55.9227 67.6377C49.0674 70.7197 41.1165 70.1115 34.8097 66.0228C28.5028 61.9341 24.7024 54.9238 24.7178 47.4076V47.4076Z" fill="white"/>
<path fill-rule="evenodd" clip-rule="evenodd" d="M165.425 47.8569C165.425 57.0018 160.789 65.2577 152.533 69.0681L156.915 74.7837L147.897 79.3562L141.864 71.3543H141.674C126.75 71.3543 117.922 60.4947 117.922 47.8569C117.922 35.219 126.75 24.3594 141.674 24.3594C156.598 24.3594 165.425 35.219 165.425 47.8569V47.8569ZM141.674 62.1459C150.12 62.1459 154.693 55.6047 154.693 47.8569C154.693 40.109 150.12 33.5679 141.674 33.5679C133.164 33.5679 128.591 40.109 128.655 47.8569C128.591 55.6047 133.164 62.1459 141.674 62.1459ZM182.064 70.9098C174.697 70.9098 170.76 66.3373 170.76 58.399V39.474H180.603V56.2397C180.603 60.4312 182.001 62.7174 185.684 62.7174C189.812 62.7174 191.59 60.0501 191.59 55.9222V39.474H201.243V70.0842H191.59V65.7022C189.875 68.9411 186.7 70.9098 182.064 70.9098V70.9098ZM221.502 70.9098C212.357 70.9098 207.086 63.9876 207.086 54.7791C207.086 45.6341 212.738 38.6484 221.629 38.6484C226.074 38.6484 229.567 40.7441 231.218 43.8559V39.474H240.871V70.0842H231.218V65.7657C229.567 68.8141 225.757 70.9098 221.502 70.9098V70.9098ZM224.296 62.8444C229.123 62.8444 231.599 59.2246 231.599 54.7791C231.599 50.3971 229.123 46.7772 224.296 46.7772C219.787 46.7772 216.993 50.1431 216.993 54.7791C216.993 59.4151 219.787 62.8444 224.296 62.8444ZM248.937 39.474H258.653V43.9194C260.431 40.4901 263.924 38.6484 268.56 38.6484C275.99 38.6484 279.737 42.8398 279.737 51.1592V70.0842H269.957V54.3345C269.957 49.1905 268.497 46.8407 264.559 46.8407C260.685 46.8407 258.653 49.381 258.653 54.0805V70.0842H248.937V39.474ZM303.552 62.5269C304.759 62.5269 306.029 62.4634 306.918 62.3364V70.0842C305.521 70.3382 303.235 70.5923 300.441 70.5923C295.868 70.5923 289.581 69.5762 289.581 59.3516V47.1583H284.754V39.474H289.581V30.3925H299.297V39.474H306.22V47.1583H299.297V57.3194C299.297 61.8283 301.139 62.5269 303.552 62.5269ZM324.764 71.0368C315.809 71.0368 310.284 66.6548 310.284 60.8757H319.937C319.937 62.9715 321.969 64.4956 324.954 64.4956C327.05 64.4956 328.511 63.416 328.511 61.6378C328.511 60.4312 327.939 59.4151 326.288 59.034L318.794 57.1288C313.713 55.8587 311.11 52.6834 311.11 48.3014C311.11 42.5858 316.127 38.5849 324.192 38.5849C333.146 38.5849 337.846 42.3318 337.846 48.1109H328.256C328.256 45.9517 326.669 44.745 324.065 44.745C321.969 44.745 320.572 45.7611 320.572 47.2853C320.572 48.6824 321.525 49.5715 323.176 50.0161L330.416 51.9848C335.115 53.2549 338.164 56.1127 338.164 60.4947C338.164 66.7819 333.146 71.0368 324.764 71.0368ZM360.264 62.5269C361.47 62.5269 362.741 62.4634 363.63 62.3364V70.0842C362.233 70.3382 359.946 70.5923 357.152 70.5923C352.58 70.5923 346.292 69.5762 346.292 59.3516V47.1583H341.466V39.474H346.292V30.3925H356.009V39.474H362.931V47.1583H356.009V57.3194C356.009 61.8283 357.851 62.5269 360.264 62.5269ZM381.412 70.9098C372.267 70.9098 366.996 63.9876 366.996 54.7791C366.996 45.6341 372.648 38.6484 381.539 38.6484C385.984 38.6484 389.477 40.7441 391.128 43.8559V39.474H400.781V70.0842H391.128V65.7657C389.477 68.8141 385.667 70.9098 381.412 70.9098V70.9098ZM384.206 62.8444C389.032 62.8444 391.509 59.2246 391.509 54.7791C391.509 50.3971 389.032 46.7772 384.206 46.7772C379.697 46.7772 376.903 50.1431 376.903 54.7791C376.903 59.4151 379.697 62.8444 384.206 62.8444ZM408.846 39.474H418.563V43.9194C419.897 40.8711 423.072 38.6484 427.327 38.6484C432.789 38.6484 435.583 41.0616 436.916 44.3005C438.568 40.9981 442.187 38.6484 446.696 38.6484C455.46 38.6484 457.556 44.6815 457.556 51.0957V70.0842H447.776V52.8739C447.776 48.6189 446.188 46.8407 443.204 46.8407C440.155 46.8407 438.06 48.5554 438.06 54.3345V70.0842H428.28V52.8104C428.28 48.5554 426.755 46.8407 423.771 46.8407C420.659 46.8407 418.563 48.5554 418.563 54.3345V70.0842H408.846V39.474ZM465.24 39.474H474.957V43.8559C476.545 40.9346 480.355 38.6484 484.928 38.6484C493.31 38.6484 499.026 45.1261 499.026 54.7791C499.026 64.3686 493.12 70.9098 484.674 70.9098C480.165 70.9098 476.481 68.6235 474.957 65.7657V82.7856H465.24V39.474ZM481.879 62.8444C486.134 62.8444 489.119 59.5421 489.119 54.7791C489.119 50.0796 486.134 46.7772 481.879 46.7772C477.497 46.7772 474.512 50.0161 474.512 54.7791C474.512 59.6056 477.561 62.8444 481.879 62.8444Z" fill="white"/>
</svg>
