<svg width="1114" height="557" viewBox="0 0 1114 557" fill="none" xmlns="http://www.w3.org/2000/svg">
<path d="M70.1528 162.216H302.721V394.784H70.1528V162.216Z" stroke="white"/>
<path d="M178.658 294.068L138.182 218.548H156.87L180.227 266.042C180.227 266.822 181.006 267.601 181.786 268.381C182.566 269.161 182.566 269.941 183.346 271.491L184.126 272.271V273.051C184.905 274.61 184.905 275.39 185.685 276.95C186.465 277.729 186.465 279.289 187.245 280.06C188.025 277.72 189.584 276.161 190.355 273.051C191.135 270.711 192.694 268.381 194.254 266.042L217.611 218.548H234.738L194.263 294.857V343.131H178.695L178.658 294.068Z" fill="white"/>
<path d="M396.723 243.827C406.564 243.827 415.104 246.454 421.677 251.718L415.114 259.608C409.2 255.672 403.296 253.045 396.083 253.045C384.915 253.045 376.383 258.959 371.788 270.126C369.161 276.69 367.852 285.23 367.852 296.398C367.852 304.939 369.152 312.161 371.138 317.416C376.393 329.893 384.933 335.797 398.06 335.797C405.283 335.797 411.855 333.829 417.759 329.233L424.323 337.774C415.782 343.028 406.684 345.665 396.751 345.665C384.933 345.665 375.084 341.07 367.202 331.22C359.311 321.937 356.034 309.553 356.034 294.458C356.034 279.363 359.971 267.536 367.852 257.696C375.075 249.155 384.933 243.901 396.751 243.901L396.723 243.827ZM434.154 308.838C434.154 297.02 436.781 287.82 442.694 281.266C448.608 274.712 455.83 270.758 465.021 270.758C475.529 270.758 484.052 274.694 489.974 283.235C494.57 289.798 496.538 298.998 496.538 310.156C496.538 323.292 492.602 333.801 485.37 340.364C479.932 345.141 472.907 347.717 465.671 347.587C455.83 347.587 448.589 344.3 442.685 337.078C436.772 330.515 434.144 320.665 434.144 308.838H434.154ZM480.125 289.807C476.838 283.894 472.234 280.524 465.021 280.524C457.808 280.524 453.203 283.151 449.917 288.415C447.29 292.351 446.63 298.923 446.63 307.445C446.63 318.613 447.93 326.476 451.226 331.09C454.521 335.704 459.117 338.313 465.671 338.313C473.561 338.313 478.806 334.376 481.434 327.145C482.733 323.209 483.402 317.861 483.402 311.382C484.052 301.541 482.752 294.3 480.115 289.714L480.125 289.807ZM517.537 291.107C517.537 283.884 516.887 277.971 514.909 273.468L526.077 270.841C528.045 274.128 528.704 278.064 528.704 281.35V282C531.332 279.373 533.959 276.745 537.988 274.777C542.583 272.15 546.528 270.841 550.465 270.841C556.378 270.841 561.632 273.468 564.909 278.064C565.559 279.363 566.877 281.35 567.537 282.659C575.427 274.768 582.641 270.841 590.522 270.841C595.776 270.841 600.362 272.809 603.658 276.096C606.944 280.032 608.912 284.636 608.912 289.891V344.384H596.918V290.541C596.918 283.318 593.632 280.032 587.635 280.032C584.349 280.032 580.413 281.331 577.126 283.968C575.827 285.268 573.19 287.254 569.904 289.881L568.604 291.181V344.375H556.127V293.075C556.127 288.48 555.478 285.184 554.159 283.792C552.191 281.823 550.223 281.164 546.937 281.164C541.683 281.164 535.769 284.451 528.556 291.005V344.848H517.546L517.537 291.107ZM629.187 241.2L641.005 238.572C642.305 243.827 642.973 249.74 642.973 256.953V281.248C649.536 274.685 656.768 271.408 663.99 271.408C672.531 271.408 679.754 274.694 684.349 281.248C689.603 287.811 692.24 297.011 692.24 308.17C692.24 319.987 689.612 329.187 684.349 336.409C679.085 343.632 671.872 346.918 663.331 346.918C659.448 346.991 655.608 346.088 652.163 344.291C648.227 342.323 645.6 340.355 643.623 337.728L641.655 345.619H630.487C631.787 342.332 632.455 336.335 632.455 327.238V258.262C631.805 250.372 631.155 244.467 629.169 241.181L629.187 241.2ZM648.218 285.76C646.25 287.059 644.282 289.046 642.964 291.014V328.63C647.559 334.544 653.472 337.171 660.602 337.171C666.516 337.171 671.111 335.203 673.738 330.607C677.024 325.353 678.992 318.131 678.992 307.622C678.992 298.339 677.693 291.859 674.397 287.923C671.77 283.986 667.175 282.009 660.602 282.009C656.666 281.359 652.061 282.659 648.125 285.945L648.218 285.76ZM709.302 250.483C709.302 247.856 709.952 245.888 711.93 243.92C713.907 241.952 715.866 241.292 718.493 241.292C721.12 241.292 723.088 241.942 725.056 243.92C727.024 245.897 727.683 247.856 727.683 250.483C727.683 253.11 727.033 255.078 725.056 257.046C723.079 259.014 721.12 259.673 718.493 259.673C715.866 259.673 713.898 259.024 711.93 257.046C709.962 255.069 709.302 253.11 709.302 250.483ZM712.032 344.969V272.744L723.849 270.776V344.987L712.032 344.969ZM749.369 291.107C749.369 285.852 749.369 282.566 748.719 281.266C748.719 279.298 747.42 277.33 746.092 274.044L757.26 270.758C759.057 274.202 759.96 278.042 759.887 281.926C767.11 274.703 774.991 270.758 782.873 270.758C786.809 270.758 790.095 271.408 793.381 273.385C796.668 275.362 799.295 277.98 800.604 281.276C801.904 283.903 802.572 286.53 802.572 289.816V344.978H791.404V295.73C791.404 289.816 790.754 285.89 788.777 283.912C787.753 282.86 786.527 282.027 785.173 281.462C783.818 280.897 782.363 280.613 780.895 280.626C778.268 280.626 774.332 281.926 770.387 283.912C766.738 285.777 763.412 288.215 760.537 291.135V344.978H749.369V291.107ZM828.835 288.48L822.921 280.589C832.761 274.025 842.62 270.748 853.129 270.748C863.638 270.748 870.21 274.685 873.487 281.916C874.787 284.543 874.787 288.48 874.787 294.393V298.329L874.137 321.974V325.26C874.137 329.196 874.137 331.823 874.787 333.801C875.437 336.428 877.414 338.396 880.041 339.714L874.128 347.605C868.874 345.637 865.587 342.351 864.288 337.096C857.724 343.66 850.493 346.937 843.27 346.937C836.048 346.937 830.134 344.969 825.632 341.023C821.696 337.737 819.718 332.483 819.718 325.919C819.545 322.16 820.364 318.422 822.093 315.08C823.822 311.738 826.4 308.91 829.568 306.879C836.131 302.284 845.981 300.316 857.808 300.316H863.062V295.061C863.062 289.148 862.412 285.221 860.435 283.894C859.19 282.548 857.661 281.497 855.959 280.816C854.257 280.135 852.424 279.842 850.595 279.957C846.659 279.957 842.054 281.257 836.8 283.244L828.909 288.498L828.835 288.48ZM863.647 327.228L864.297 308.197H858.383C847.875 308.197 841.302 310.165 837.366 314.111C834.739 316.738 833.43 320.674 833.43 325.929C833.43 334.469 837.366 339.064 845.907 339.064C849.635 338.851 853.237 337.642 856.339 335.564C859.441 333.485 861.93 330.613 863.545 327.247L863.647 327.228ZM912.236 272.717H930.617L927.331 282H912.227V328.63C912.227 332.566 912.877 335.193 914.195 337.171C915.494 338.47 918.131 339.798 921.417 339.798C924.044 339.798 926.672 339.148 928.64 338.498L929.939 345.721C926.003 347.689 922.049 348.348 917.463 348.348C906.295 348.348 901.05 343.093 901.05 331.935V282.028H891.2V272.744H900.483V271.445C900.483 270.145 901.133 264.881 901.783 256.341V254.363L913.601 251.736C912.301 259.627 912.301 266.84 912.301 272.754L912.236 272.717ZM942.444 308.829C942.444 297.011 945.071 287.811 950.985 281.257C956.239 274.694 964.121 270.748 973.311 270.748C983.82 270.748 992.342 274.685 998.265 283.225C1002.86 289.789 1004.83 298.988 1004.83 310.147C1004.83 323.283 1000.89 333.792 993.66 340.355C988.222 345.132 981.198 347.707 973.961 347.577C964.121 347.577 956.88 344.291 950.975 337.069C945.721 330.505 942.435 320.656 942.435 308.829H942.444ZM989.074 289.798C985.788 283.884 981.183 280.514 973.97 280.514C966.757 280.514 962.152 283.142 958.866 288.405C956.239 292.341 955.58 298.914 955.58 307.436C955.58 318.604 956.88 326.467 960.175 331.081C963.471 335.695 968.066 338.303 974.62 338.303C982.511 338.303 987.756 334.367 990.383 327.135C991.683 323.199 992.351 317.852 992.351 311.372C992.351 301.532 991.052 294.291 989.065 289.705L989.074 289.798ZM1026.49 289.779C1026.49 283.216 1025.84 277.962 1023.86 274.016L1035.03 270.73C1036.82 274.174 1037.73 278.014 1037.65 281.898V283.197C1043.57 275.307 1050.13 271.38 1058.01 271.38C1059.31 271.38 1060.64 271.38 1061.95 272.03L1057.35 284.506C1056.05 283.856 1054.73 283.856 1054.07 283.856C1051.44 283.856 1048.15 284.506 1045.53 286.484C1042.9 288.461 1040.27 290.42 1038.96 293.047C1038.1 295.585 1037.66 298.247 1037.65 300.929V346.231H1026.49V289.779Z" fill="white"/>
</svg>
